<?xml version="1.0" standalone="no"?>
<svg xmlns:xlink="http://www.w3.org/1999/xlink" id="wave" style="transform:rotate(180deg); transition: 0.3s" viewBox="0 0 1440 150" version="1.1" xmlns="http://www.w3.org/2000/svg"><defs><linearGradient id="sw-gradient-0" x1="0" x2="0" y1="1" y2="0"><stop stop-color="rgba(249, 240, 219, 1)" offset="0%"/><stop stop-color="rgba(219, 210, 189, 1)" offset="100%"/></linearGradient></defs><path style="transform:translate(0, 0px); opacity:1" fill="url(#sw-gradient-0)" d="M0,105L21.8,102.5C43.6,100,87,95,131,92.5C174.5,90,218,90,262,90C305.5,90,349,90,393,80C436.4,70,480,50,524,42.5C567.3,35,611,40,655,42.5C698.2,45,742,45,785,60C829.1,75,873,105,916,115C960,125,1004,115,1047,95C1090.9,75,1135,45,1178,50C1221.8,55,1265,95,1309,112.5C1352.7,130,1396,125,1440,107.5C1483.6,90,1527,60,1571,57.5C1614.5,55,1658,80,1702,77.5C1745.5,75,1789,45,1833,30C1876.4,15,1920,15,1964,20C2007.3,25,2051,35,2095,55C2138.2,75,2182,105,2225,115C2269.1,125,2313,115,2356,92.5C2400,70,2444,35,2487,32.5C2530.9,30,2575,60,2618,62.5C2661.8,65,2705,40,2749,35C2792.7,30,2836,45,2880,57.5C2923.6,70,2967,80,3011,80C3054.5,80,3098,70,3120,65L3141.8,60L3141.8,150L3120,150C3098.2,150,3055,150,3011,150C2967.3,150,2924,150,2880,150C2836.4,150,2793,150,2749,150C2705.5,150,2662,150,2618,150C2574.5,150,2531,150,2487,150C2443.6,150,2400,150,2356,150C2312.7,150,2269,150,2225,150C2181.8,150,2138,150,2095,150C2050.9,150,2007,150,1964,150C1920,150,1876,150,1833,150C1789.1,150,1745,150,1702,150C1658.2,150,1615,150,1571,150C1527.3,150,1484,150,1440,150C1396.4,150,1353,150,1309,150C1265.5,150,1222,150,1178,150C1134.5,150,1091,150,1047,150C1003.6,150,960,150,916,150C872.7,150,829,150,785,150C741.8,150,698,150,655,150C610.9,150,567,150,524,150C480,150,436,150,393,150C349.1,150,305,150,262,150C218.2,150,175,150,131,150C87.3,150,44,150,22,150L0,150Z"/><defs><linearGradient id="sw-gradient-1" x1="0" x2="0" y1="1" y2="0"><stop stop-color="rgba(249, 240, 219, 1)" offset="0%"/><stop stop-color="rgba(249, 240, 219, 1)" offset="100%"/></linearGradient></defs><path style="transform:translate(0, 50px); opacity:0.9" fill="url(#sw-gradient-1)" d="M0,120L21.8,120C43.6,120,87,120,131,112.5C174.5,105,218,90,262,87.5C305.5,85,349,95,393,100C436.4,105,480,105,524,102.5C567.3,100,611,95,655,80C698.2,65,742,40,785,37.5C829.1,35,873,55,916,72.5C960,90,1004,105,1047,102.5C1090.9,100,1135,80,1178,60C1221.8,40,1265,20,1309,32.5C1352.7,45,1396,90,1440,100C1483.6,110,1527,85,1571,70C1614.5,55,1658,50,1702,60C1745.5,70,1789,95,1833,95C1876.4,95,1920,70,1964,65C2007.3,60,2051,75,2095,67.5C2138.2,60,2182,30,2225,32.5C2269.1,35,2313,70,2356,87.5C2400,105,2444,105,2487,90C2530.9,75,2575,45,2618,47.5C2661.8,50,2705,85,2749,90C2792.7,95,2836,70,2880,62.5C2923.6,55,2967,65,3011,80C3054.5,95,3098,115,3120,125L3141.8,135L3141.8,150L3120,150C3098.2,150,3055,150,3011,150C2967.3,150,2924,150,2880,150C2836.4,150,2793,150,2749,150C2705.5,150,2662,150,2618,150C2574.5,150,2531,150,2487,150C2443.6,150,2400,150,2356,150C2312.7,150,2269,150,2225,150C2181.8,150,2138,150,2095,150C2050.9,150,2007,150,1964,150C1920,150,1876,150,1833,150C1789.1,150,1745,150,1702,150C1658.2,150,1615,150,1571,150C1527.3,150,1484,150,1440,150C1396.4,150,1353,150,1309,150C1265.5,150,1222,150,1178,150C1134.5,150,1091,150,1047,150C1003.6,150,960,150,916,150C872.7,150,829,150,785,150C741.8,150,698,150,655,150C610.9,150,567,150,524,150C480,150,436,150,393,150C349.1,150,305,150,262,150C218.2,150,175,150,131,150C87.3,150,44,150,22,150L0,150Z"/></svg>