<?xml version="1.0" standalone="no"?>
<svg xmlns:xlink="http://www.w3.org/1999/xlink" id="wave" style="transform:rotate(180deg); transition: 0.3s" viewBox="0 0 1440 310" version="1.1" xmlns="http://www.w3.org/2000/svg"><defs><linearGradient id="sw-gradient-0" x1="0" x2="0" y1="1" y2="0"><stop stop-color="rgba(249, 240, 219, 1)" offset="0%"/><stop stop-color="rgba(219, 210, 189, 1)" offset="100%"/></linearGradient></defs><path style="transform:translate(0, 0px); opacity:1" fill="url(#sw-gradient-0)" d="M0,217L26.7,211.8C53.3,207,107,196,160,191.2C213.3,186,267,186,320,186C373.3,186,427,186,480,165.3C533.3,145,587,103,640,87.8C693.3,72,747,83,800,87.8C853.3,93,907,93,960,124C1013.3,155,1067,217,1120,237.7C1173.3,258,1227,238,1280,196.3C1333.3,155,1387,93,1440,103.3C1493.3,114,1547,196,1600,232.5C1653.3,269,1707,258,1760,222.2C1813.3,186,1867,124,1920,118.8C1973.3,114,2027,165,2080,160.2C2133.3,155,2187,93,2240,62C2293.3,31,2347,31,2400,41.3C2453.3,52,2507,72,2560,113.7C2613.3,155,2667,217,2720,237.7C2773.3,258,2827,238,2880,191.2C2933.3,145,2987,72,3040,67.2C3093.3,62,3147,124,3200,129.2C3253.3,134,3307,83,3360,72.3C3413.3,62,3467,93,3520,118.8C3573.3,145,3627,165,3680,165.3C3733.3,165,3787,145,3813,134.3L3840,124L3840,310L3813.3,310C3786.7,310,3733,310,3680,310C3626.7,310,3573,310,3520,310C3466.7,310,3413,310,3360,310C3306.7,310,3253,310,3200,310C3146.7,310,3093,310,3040,310C2986.7,310,2933,310,2880,310C2826.7,310,2773,310,2720,310C2666.7,310,2613,310,2560,310C2506.7,310,2453,310,2400,310C2346.7,310,2293,310,2240,310C2186.7,310,2133,310,2080,310C2026.7,310,1973,310,1920,310C1866.7,310,1813,310,1760,310C1706.7,310,1653,310,1600,310C1546.7,310,1493,310,1440,310C1386.7,310,1333,310,1280,310C1226.7,310,1173,310,1120,310C1066.7,310,1013,310,960,310C906.7,310,853,310,800,310C746.7,310,693,310,640,310C586.7,310,533,310,480,310C426.7,310,373,310,320,310C266.7,310,213,310,160,310C106.7,310,53,310,27,310L0,310Z"/><defs><linearGradient id="sw-gradient-1" x1="0" x2="0" y1="1" y2="0"><stop stop-color="rgba(249, 240, 219, 1)" offset="0%"/><stop stop-color="rgba(249, 240, 219, 1)" offset="100%"/></linearGradient></defs><path style="transform:translate(0, 50px); opacity:0.9" fill="url(#sw-gradient-1)" d="M0,248L26.7,248C53.3,248,107,248,160,232.5C213.3,217,267,186,320,180.8C373.3,176,427,196,480,206.7C533.3,217,587,217,640,211.8C693.3,207,747,196,800,165.3C853.3,134,907,83,960,77.5C1013.3,72,1067,114,1120,149.8C1173.3,186,1227,217,1280,211.8C1333.3,207,1387,165,1440,124C1493.3,83,1547,41,1600,67.2C1653.3,93,1707,186,1760,206.7C1813.3,227,1867,176,1920,144.7C1973.3,114,2027,103,2080,124C2133.3,145,2187,196,2240,196.3C2293.3,196,2347,145,2400,134.3C2453.3,124,2507,155,2560,139.5C2613.3,124,2667,62,2720,67.2C2773.3,72,2827,145,2880,180.8C2933.3,217,2987,217,3040,186C3093.3,155,3147,93,3200,98.2C3253.3,103,3307,176,3360,186C3413.3,196,3467,145,3520,129.2C3573.3,114,3627,134,3680,165.3C3733.3,196,3787,238,3813,258.3L3840,279L3840,310L3813.3,310C3786.7,310,3733,310,3680,310C3626.7,310,3573,310,3520,310C3466.7,310,3413,310,3360,310C3306.7,310,3253,310,3200,310C3146.7,310,3093,310,3040,310C2986.7,310,2933,310,2880,310C2826.7,310,2773,310,2720,310C2666.7,310,2613,310,2560,310C2506.7,310,2453,310,2400,310C2346.7,310,2293,310,2240,310C2186.7,310,2133,310,2080,310C2026.7,310,1973,310,1920,310C1866.7,310,1813,310,1760,310C1706.7,310,1653,310,1600,310C1546.7,310,1493,310,1440,310C1386.7,310,1333,310,1280,310C1226.7,310,1173,310,1120,310C1066.7,310,1013,310,960,310C906.7,310,853,310,800,310C746.7,310,693,310,640,310C586.7,310,533,310,480,310C426.7,310,373,310,320,310C266.7,310,213,310,160,310C106.7,310,53,310,27,310L0,310Z"/></svg>